<svg xmlns="http://www.w3.org/2000/svg" viewBox="0 0 500 500"><g id="freepik--Floor--inject-38"><path id="freepik--floor--inject-38" d="M77.66,220.25c-95.18,54.95-95.17,144.05,0,199s249.49,54.95,344.67,0,95.17-144,0-199S172.84,165.3,77.66,220.25Z" style="fill:#f5f5f5"></path></g><g id="freepik--Shadows--inject-38"><g id="freepik--Shadow--inject-38"><path d="M286.64,222.31c-6.63,3.83-17.42,3.83-24.05,0-3.21-1.85-5-4.32-5-6.94s1.77-5.09,5-6.94h0a26.54,26.54,0,0,1,24.05,0C293.27,212.26,293.27,218.48,286.64,222.31Z" style="fill:#e0e0e0"></path><polygon points="251.9 328.45 194 402.67 178.09 402.47 199.44 325.2 76.58 306.52 82.71 295.41 214.44 296.9 267.54 216.93 283.18 216.93 266.9 300.15 389.76 318.83 383.63 329.93 251.9 328.45" style="fill:#e0e0e0"></polygon><path d="M198.79,408.3c-6.63,3.82-17.41,3.82-24,0s-6.63-10.06,0-13.89a26.61,26.61,0,0,1,24,0c3.21,1.86,5,4.32,5,6.94S202,406.44,198.79,408.3Z" style="fill:#e0e0e0"></path><path d="M408.23,332.5c-6.63,3.82-17.41,3.82-24,0s-6.63-10.06,0-13.88,17.41-3.83,24,0,6.63,10.06,0,13.89Z" style="fill:#e0e0e0"></path><path d="M83.32,307.35c-6.63,3.83-17.42,3.83-24,0s-6.63-10.05,0-13.88,17.42-3.83,24,0,6.63,10,0,13.88Z" style="fill:#e0e0e0"></path><path d="M268.31,358.15,220,343.05l-.63-.38c-.35-.21-34.83-21.25-56.68-34.36-21.12-12.67-38-25.26-12.59-39.92s47.19-4.92,69.14,7.27c22.7,12.61,59.15,32.53,59.51,32.72l.66.36,26.34,27.8Z" style="fill:#e0e0e0"></path></g><path id="freepik--shadow--inject-38" d="M440,417.47l-38.7-22.35a10,10,0,0,0,1.09-4.49c0-4.56-3.17-9-8.68-12.19a37,37,0,0,0-18-4.53,28.82,28.82,0,0,0-14.19,3.33L343,388l-36.36-19.09h0a1.58,1.58,0,0,0-1.57,2.73h0l31.63,20-22.23,12.83-36.26-19h0a1.6,1.6,0,0,0-2.1.61,1.58,1.58,0,0,0,.52,2.12h0l31.54,19.93-29,16.72c-4.25,2.45-6.59,6-6.59,10,0,4.57,3.16,9,8.67,12.19a37,37,0,0,0,18,4.53,32.29,32.29,0,0,0,10.11-1.54,5.71,5.71,0,0,0,1.33,1.08l39.77,23a7.05,7.05,0,0,0,3.53.89,7.13,7.13,0,0,0,3.52-.88L440,426.35a4.92,4.92,0,0,0,0-8.88Z" style="fill:#e0e0e0"></path></g><g id="freepik--Clouds--inject-38"><path id="freepik--Cloud--inject-38" d="M423.2,91.63a9.59,9.59,0,0,0-3.27-.6c-1.06-.09-1.4-.3-1.6-.53a7.83,7.83,0,0,0-9.4-2.77,6,6,0,0,0-7.08-4c.12-3.3-4.1-6.85-7.89-7.65-3.63-.78-6.8-.45-8.87,1.94-2.22-4.33-10.91-5.56-15.62-3.26-2.71,1.31-5,2.67-6.13,5.15a10.27,10.27,0,0,0-1,4.93c-1.84-1.62-5.51-2.06-8-1.11-2.64,1-2.84,3-3,5a9.34,9.34,0,0,0-4.81-.09c-1.67.5-2.62,1.8-2.4,2.86-1.31-.08-4.45,1-4.09,2.38.41,1.56,4,1.4,5.33,1.35a24.93,24.93,0,0,0,3.74-.59,5.69,5.69,0,0,0,1.95.37c2.28,0,3.25-1,3.61-1.84,1.11,2.35,5.08,4.13,7.88,4.85,5.27,1.35,12.73.52,16-3.42a5.94,5.94,0,0,0,1.57,1.92,9.11,9.11,0,0,0,4.88,2c2.16.21,8,.48,9.61-3,1.16,2.29,6.34,3.33,10.27,2.77A15.89,15.89,0,0,0,409.33,97a27.72,27.72,0,0,0,2.53-1.51,2.11,2.11,0,0,1,2.16-.15,12.92,12.92,0,0,0,8.59,0C424.81,94.41,425.27,92.57,423.2,91.63Z" style="fill:#f0f0f0"></path><path id="freepik--cloud--inject-38" d="M141.2,134.82a11.48,11.48,0,0,0-3.78-.7c-1.22-.09-1.61-.34-1.85-.6a9,9,0,0,0-10.83-3.2,6.93,6.93,0,0,0-8.17-4.62c.13-3.81-4.73-7.9-9.1-8.83-4.19-.9-7.85-.52-10.24,2.23-2.56-5-12.59-6.4-18-3.76-3.13,1.52-5.77,3.08-7.07,5.94A12.05,12.05,0,0,0,71,127c-2.11-1.86-6.35-2.37-9.18-1.27-3,1.18-3.27,3.47-3.42,5.81a10.65,10.65,0,0,0-5.55-.1c-1.92.57-3,2.07-2.76,3.29-1.52-.08-5.14,1.15-4.73,2.75.47,1.8,4.6,1.62,6.15,1.56a29.21,29.21,0,0,0,4.32-.68,6.7,6.7,0,0,0,2.24.43c2.64,0,3.75-1.15,4.17-2.13,1.29,2.71,5.86,4.77,9.09,5.6,6.08,1.55,14.69.6,18.44-3.94a6.73,6.73,0,0,0,1.81,2.2,10.4,10.4,0,0,0,5.63,2.28c2.5.24,9.2.56,11.09-3.41,1.34,2.64,7.31,3.84,11.85,3.2a18.73,18.73,0,0,0,5.08-1.54,31.31,31.31,0,0,0,2.92-1.75,2.44,2.44,0,0,1,2.5-.17c3.11.94,6.73,1.32,9.91,0C143.05,138,143.58,135.9,141.2,134.82Z" style="fill:#f0f0f0"></path><path id="freepik--cloud--inject-38" d="M461.08,153a7.93,7.93,0,0,0-2.59-.48c-.84-.06-1.11-.23-1.27-.41a6.2,6.2,0,0,0-7.43-2.2,4.74,4.74,0,0,0-5.6-3.16c.09-2.61-3.24-5.42-6.24-6.05s-5.37-.36-7,1.53c-1.76-3.43-8.63-4.39-12.36-2.58-2.14,1-3.95,2.11-4.84,4.07a8.26,8.26,0,0,0-.81,3.9,6.85,6.85,0,0,0-6.29-.87c-2.09.81-2.24,2.38-2.35,4a7.41,7.41,0,0,0-3.8-.07c-1.32.39-2.07,1.43-1.89,2.26-1-.06-3.52.78-3.24,1.88s3.15,1.11,4.21,1.07a19,19,0,0,0,3-.46,4.74,4.74,0,0,0,1.54.29c1.81,0,2.57-.78,2.86-1.46.88,1.86,4,3.27,6.23,3.84,4.17,1.06,10.07.41,12.64-2.7a4.54,4.54,0,0,0,1.24,1.51,7.14,7.14,0,0,0,3.86,1.56c1.71.16,6.3.38,7.6-2.34.92,1.81,5,2.64,8.12,2.19a12.66,12.66,0,0,0,3.48-1.05,22.71,22.71,0,0,0,2-1.2,1.67,1.67,0,0,1,1.7-.12,10.17,10.17,0,0,0,6.8,0C462.35,155.17,462.71,153.71,461.08,153Z" style="fill:#f5f5f5"></path><path id="freepik--cloud--inject-38" d="M187.59,69.29a7.49,7.49,0,0,0-2.6-.48c-.84-.07-1.1-.24-1.26-.42a6.18,6.18,0,0,0-7.43-2.19A4.74,4.74,0,0,0,170.7,63c.09-2.61-3.24-5.41-6.24-6.05s-5.37-.36-7,1.53c-1.76-3.42-8.64-4.39-12.36-2.58-2.14,1-4,2.12-4.84,4.08a8.09,8.09,0,0,0-.81,3.9,6.86,6.86,0,0,0-6.29-.88c-2.09.81-2.25,2.38-2.35,4A7.24,7.24,0,0,0,127,67c-1.32.39-2.08,1.42-1.89,2.25-1,0-3.53.79-3.24,1.89s3.15,1.11,4.21,1.07a20.38,20.38,0,0,0,3-.47,4.49,4.49,0,0,0,1.54.29c1.8,0,2.57-.78,2.86-1.45.88,1.85,4,3.26,6.23,3.83,4.17,1.07,10.07.42,12.63-2.7a4.57,4.57,0,0,0,1.25,1.51,7.22,7.22,0,0,0,3.85,1.57c1.72.16,6.31.38,7.61-2.35.91,1.81,5,2.64,8.12,2.2a12.67,12.67,0,0,0,3.48-1.06,17.64,17.64,0,0,0,2-1.2,1.68,1.68,0,0,1,1.71-.11,10.23,10.23,0,0,0,6.8,0C188.85,71.48,189.22,70,187.59,69.29Z" style="fill:#f5f5f5"></path></g><g id="freepik--device-2--inject-38"><g id="freepik--Control--inject-38"><path d="M318.11,399.68a1.59,1.59,0,0,0-.67-1.48h0L278,377.49h0a1.43,1.43,0,0,0-1.43,2.48h0l37.62,23.78h0l0,0a1.6,1.6,0,0,0,1.62-.16A5,5,0,0,0,318.11,399.68Z" style="fill:#263238"></path><path d="M318.11,399.68a1.39,1.39,0,0,0-2.28-1.32,5.06,5.06,0,0,0-2.29,4,1.39,1.39,0,0,0,2.29,1.31A5,5,0,0,0,318.11,399.68Z" style="fill:#455a64"></path><path d="M346.55,383.25a1.61,1.61,0,0,0-.67-1.48h0l-39.41-20.69h0a1.44,1.44,0,0,0-1.44,2.48h0l37.62,23.78h0l0,0a1.58,1.58,0,0,0,1.61-.16A5,5,0,0,0,346.55,383.25Z" style="fill:#263238"></path><path d="M346.55,383.25a1.4,1.4,0,0,0-2.29-1.32,5.05,5.05,0,0,0-2.28,4,1.39,1.39,0,0,0,2.28,1.31A5,5,0,0,0,346.55,383.25Z" style="fill:#455a64"></path><path d="M397,378.55c0-3.17-2.34-6.52-6.86-9.13h0c-8.29-4.78-20.83-5.3-28-1.16l-79.33,45.79c-3.25,1.88-4.84,4.39-4.84,7,0,2.88,0,9.2,0,11.81,0,3.2,2.29,6.58,6.86,9.22h0c8.29,4.79,20.83,5.31,28,1.16l79.33-45.79c3.24-1.87,4.83-4.37,4.84-7C397,387.59,397,381.19,397,378.55Z" style="fill:#263238"></path><path d="M392.19,385.59l-79.33,45.79c-7.17,4.15-19.71,3.63-28-1.16h0c-8.29-4.78-9.19-12-2-16.17l79.33-45.79c7.17-4.14,19.71-3.62,28,1.16h0C398.47,374.21,399.37,381.45,392.19,385.59Z" style="fill:#37474f"></path><polygon points="362.79 467.68 314.05 439.53 314.05 434.84 362.79 462.99 362.79 467.68" style="fill:#18CB96"></polygon><polygon points="362.79 467.68 314.05 439.53 314.05 434.84 362.79 462.99 362.79 467.68" style="opacity:0.2"></polygon><polygon points="314.05 434.84 330.3 425.46 379.04 453.61 362.79 462.99 314.05 434.84" style="fill:#18CB96"></polygon><polygon points="419.66 434.84 370.92 406.7 370.92 402.01 419.66 430.15 419.66 434.84" style="fill:#18CB96"></polygon><polygon points="419.66 434.84 370.92 406.7 370.92 402.01 419.66 430.15 419.66 434.84" style="opacity:0.2"></polygon><polygon points="370.92 402.01 387.17 392.63 435.91 420.77 419.66 430.15 370.92 402.01" style="fill:#18CB96"></polygon><g id="freepik--Mobile--inject-38"><path d="M393.8,389.79,313.7,436a3.61,3.61,0,0,0-2,3.76,4.37,4.37,0,0,0,2,3.75l38.19,22a6,6,0,0,0,5.4,0l80.1-46.24a3.79,3.79,0,0,0,1.83-3.52c0-1.21-.33-3.13-1.83-4l-38.19-22A5.08,5.08,0,0,0,393.8,389.79Z" style="fill:#37474f"></path><path d="M395.77,391.45l39.28,22.68-80.46,46.43v5.68a5.5,5.5,0,0,0,2.7-.65l80.1-46.24a3.79,3.79,0,0,0,1.83-3.52c0-1.21-.33-3.13-1.83-4l-38.19-22a5.09,5.09,0,0,0-3.43-.72v2.38Z" style="fill:#263238"></path><path d="M314.39,438.83,352.69,461a4.22,4.22,0,0,0,3.79,0l79.46-45.87c1.6-.93,1.59-2.44,0-3.37l-37.28-21.52a4.76,4.76,0,0,0-4.3,0l-80,46.16A1.31,1.31,0,0,0,314.39,438.83Z" style="fill:#455a64"></path><path d="M319.12,435.78l74.27-42.88a4.51,4.51,0,0,1,4.08,0L432,412.83a1.25,1.25,0,0,1,0,2.36l-74.82,43.19a4.56,4.56,0,0,1-3.38.3l-.24-.08a3.25,3.25,0,0,1-.46-.22l-9.71-5.6-.63-.37a.39.39,0,0,1,0-.73c.34-.2.33-.54,0-.76l-11.32-6.53a1.42,1.42,0,0,0-1.3,0,1.46,1.46,0,0,1-1.21,0l-.06,0-9.5-5.48-.21-.12C317.7,437.94,317.7,436.6,319.12,435.78Z"></path><path d="M397,396.61a4.51,4.51,0,0,0-4.08,0L319.51,439l9.32,5.38.06,0a1.46,1.46,0,0,0,1.21,0,1.42,1.42,0,0,1,1.3,0l11.32,6.53c.38.22.39.56,0,.76a.39.39,0,0,0,0,.73l.63.37,9.71,5.6a3.25,3.25,0,0,0,.46.22l.24.08a4.56,4.56,0,0,0,3.38-.3L430.58,416Z" style="fill:#fafafa"></path><path d="M349.52,433.94a7.43,7.43,0,0,1,2.05-.83,7.93,7.93,0,0,1,2.11-.22,9.29,9.29,0,0,1,2.13.35,11.79,11.79,0,0,1,2.11.85c.81.43,1.59.88,2.33,1.34a7.31,7.31,0,0,1,1.47,1.22,2.38,2.38,0,0,1,.61,1.23,1.69,1.69,0,0,1-.35,1.2,4.28,4.28,0,0,1-1.4,1.17l-3.43,2a.72.72,0,0,1-.38.07.78.78,0,0,1-.41-.11l-10.14-5.86a.3.3,0,0,1-.19-.23.2.2,0,0,1,.13-.22Zm6.57,1.21a6.57,6.57,0,0,0-1.11-.44,5.1,5.1,0,0,0-1.18-.19,4.44,4.44,0,0,0-1.2.11,4.79,4.79,0,0,0-1.19.48l-1.82,1.05,7.07,4.08,1.89-1.09a2.36,2.36,0,0,0,.79-.66,1,1,0,0,0,.18-.68,1.26,1.26,0,0,0-.34-.67,3.66,3.66,0,0,0-.77-.65C357.67,436,356.9,435.58,356.09,435.15Z" style="fill:#455a64"></path><path d="M359.25,428.32a6.71,6.71,0,0,1,6.9,0,3.47,3.47,0,0,1,1.5,1.39,1.39,1.39,0,0,1-.13,1.46l5.75,1.16a.93.93,0,0,1,.22.08.27.27,0,0,1,.15.19.18.18,0,0,1-.11.18l-1.15.67a1,1,0,0,1-.55.14,2.57,2.57,0,0,1-.46-.05l-5.45-1.08-1.8,1,3.65,2.11a.33.33,0,0,1,.19.24c0,.09,0,.16-.13.22l-1.1.64a.74.74,0,0,1-.38.07.76.76,0,0,1-.41-.11l-10.15-5.85a.36.36,0,0,1-.19-.24c0-.09,0-.16.14-.22Zm2.9,4,2-1.14a1.91,1.91,0,0,0,.93-.9c.1-.3-.15-.62-.73-.95a2.67,2.67,0,0,0-1.64-.42,4.38,4.38,0,0,0-1.54.54l-2,1.14Z" style="fill:#455a64"></path><path d="M368.26,427.85a6.38,6.38,0,0,1-1.37-1.12,2.36,2.36,0,0,1-.61-1.21,1.84,1.84,0,0,1,.31-1.23,4,4,0,0,1,1.41-1.2,7.25,7.25,0,0,1,2.06-.81,7.65,7.65,0,0,1,2.13-.18,8.87,8.87,0,0,1,2.1.35,9.8,9.8,0,0,1,2,.79l.68.36.76.43.74.44.63.39a6.38,6.38,0,0,1,1.37,1.12,2.36,2.36,0,0,1,.61,1.21,1.75,1.75,0,0,1-.33,1.23,4.1,4.1,0,0,1-1.4,1.2,7.24,7.24,0,0,1-2.07.81,8.09,8.09,0,0,1-2.13.19,8.72,8.72,0,0,1-2.09-.36,10.44,10.44,0,0,1-1.95-.78l-.68-.37-.76-.43-.74-.43Zm6.24-3.51a5.35,5.35,0,0,0-2.39-.64,4,4,0,0,0-2.15.52c-.63.37-.94.78-.91,1.24s.4.92,1.12,1.38c.38.24.81.5,1.3.78l1.35.75a5.18,5.18,0,0,0,2.38.64,4,4,0,0,0,2.14-.53c.64-.36.94-.78.92-1.23s-.39-.92-1.11-1.38c-.38-.24-.81-.5-1.3-.78Z" style="fill:#455a64"></path><path d="M391.12,422.62a1,1,0,0,1-.5.12l-.39,0-10.35-1.57,6.48,3.74a.35.35,0,0,1,.19.23c0,.09,0,.16-.14.22l-1.1.64a.65.65,0,0,1-.38.07.86.86,0,0,1-.41-.1l-10.15-5.86a.36.36,0,0,1-.19-.24c0-.09,0-.16.14-.22l.95-.55a.85.85,0,0,1,.49-.12l.4,0,10.34,1.58L380,416.81a.34.34,0,0,1-.19-.24c0-.09,0-.16.14-.22l1.1-.63a.63.63,0,0,1,.38-.08.89.89,0,0,1,.41.11L392,421.61c.12.07.18.14.19.23a.22.22,0,0,1-.13.23Z" style="fill:#455a64"></path><path d="M398.94,415.83a.72.72,0,0,1,.38-.07.78.78,0,0,1,.41.11l1.11.64a.33.33,0,0,1,.19.24.22.22,0,0,1-.13.22l-6,3.45a.76.76,0,0,1-.39.07.75.75,0,0,1-.4-.11L384,414.52a.3.3,0,0,1-.19-.23.22.22,0,0,1,.13-.22l5.87-3.39a.72.72,0,0,1,.38-.07.78.78,0,0,1,.41.11l1.11.64c.12.07.18.14.19.23a.22.22,0,0,1-.13.23l-4.39,2.53,2.49,1.45,4.1-2.37a.74.74,0,0,1,.38-.08,1,1,0,0,1,.41.11l1.11.65a.3.3,0,0,1,.19.23.2.2,0,0,1-.13.22l-4.09,2.37,2.6,1.5Z" style="fill:#455a64"></path><polygon points="405.08 418.96 360.6 444.64 358.58 443.47 403.06 417.79 405.08 418.96" style="fill:#18CB96"></polygon><path d="M338.87,451.16l-5.19-3c-.3-.17-.32-.46,0-.62a1.2,1.2,0,0,1,1.09,0l5.19,3c.3.18.32.46,0,.63A1.2,1.2,0,0,1,338.87,451.16Z" style="fill:#263238"></path><path d="M330.81,446.75a.39.39,0,0,1,0-.73,1.4,1.4,0,0,1,1.26,0,.39.39,0,0,1,0,.73A1.4,1.4,0,0,1,330.81,446.75Z" style="fill:#263238"></path><path d="M377.28,450.2a2.3,2.3,0,0,0-1.06,1.77.67.67,0,0,0,.29.62c.13.07.61.36.75.43a.77.77,0,0,0,.77-.09l6.52-3.77a2.27,2.27,0,0,0,1.07-1.76.7.7,0,0,0-.27-.61l-.77-.45a.79.79,0,0,0-.77.09Z" style="fill:#455a64"></path><path d="M378,450.63l6.52-3.77c.59-.34,1.07-.1,1.07.54a2.27,2.27,0,0,1-1.07,1.76L378,452.93c-.59.34-1.07.1-1.07-.54A2.28,2.28,0,0,1,378,450.63Z" style="fill:#37474f"></path><path d="M388.71,443.6a2.28,2.28,0,0,0-1.07,1.77.64.64,0,0,0,.3.62l.74.44a.82.82,0,0,0,.77-.09l6.53-3.77A2.3,2.3,0,0,0,397,440.8a.66.66,0,0,0-.27-.6c-.13-.09-.63-.38-.77-.45a.77.77,0,0,0-.77.09Z" style="fill:#455a64"></path><path d="M389.45,444l6.53-3.77c.58-.34,1.06-.09,1.06.54a2.3,2.3,0,0,1-1.06,1.77l-6.53,3.77c-.59.34-1.07.1-1.07-.54A2.28,2.28,0,0,1,389.45,444Z" style="fill:#37474f"></path></g><path d="M377,451.51l-.09,0-2.7-1a.81.81,0,0,0-.69.11l-8.74,5a2.18,2.18,0,0,0-.73.77l-2.41,3.9a3,3,0,0,0-.46,1.53v4.93l1.61.94L379,458.3v-4.89a1.1,1.1,0,0,0-.4-1Z" style="fill:#18CB96"></path><path d="M377,451.51l-.09,0-2.7-1a.81.81,0,0,0-.69.11l-8.74,5a2.18,2.18,0,0,0-.73.77l-2.41,3.9a3,3,0,0,0-.46,1.53v4.93l1.61.94L379,458.3v-4.89a1.1,1.1,0,0,0-.4-1Z" style="opacity:0.2"></path><path d="M373.72,450.5a.84.84,0,0,0-.2.08l-8.74,5a2.1,2.1,0,0,0-.3.24l5.06,2.92,9.26-5.34Z" style="fill:#18CB96"></path><path d="M373.72,450.5a.84.84,0,0,0-.2.08l-8.74,5a2.1,2.1,0,0,0-.3.24l5.06,2.92,9.26-5.34Z" style="fill:#fff;opacity:0.2"></path><path d="M378.53,452.4l-2.7-1a.81.81,0,0,0-.69.11l-8.74,5a2.29,2.29,0,0,0-.74.77l-2.41,3.9a3.05,3.05,0,0,0-.46,1.53v4.94L379,458.3v-4.89A1,1,0,0,0,378.53,452.4Z" style="fill:#18CB96"></path><path d="M433.87,418.68l-.09,0-2.7-1a.83.83,0,0,0-.7.1l-8.73,5a2.16,2.16,0,0,0-.74.76l-2.41,3.91A3,3,0,0,0,418,429v4.94l1.62.93,16.25-9.38v-4.88a1.07,1.07,0,0,0-.4-1Z" style="fill:#18CB96"></path><path d="M433.87,418.68l-.09,0-2.7-1a.83.83,0,0,0-.7.1l-8.73,5a2.16,2.16,0,0,0-.74.76l-2.41,3.91A3,3,0,0,0,418,429v4.94l1.62.93,16.25-9.38v-4.88a1.07,1.07,0,0,0-.4-1Z" style="opacity:0.2"></path><path d="M430.59,417.67a.86.86,0,0,0-.21.07l-8.73,5a2.1,2.1,0,0,0-.3.24l5.06,2.92,9.25-5.34Z" style="fill:#18CB96"></path><path d="M430.59,417.67a.86.86,0,0,0-.21.07l-8.73,5a2.1,2.1,0,0,0-.3.24l5.06,2.92,9.25-5.34Z" style="fill:#fff;opacity:0.2"></path><path d="M435.4,419.57l-2.7-1a.79.79,0,0,0-.7.11l-8.73,5a2.11,2.11,0,0,0-.74.77l-2.41,3.9a3,3,0,0,0-.46,1.52v4.94l16.25-9.38v-4.88A1,1,0,0,0,435.4,419.57Z" style="fill:#18CB96"></path><path d="M311.46,417.1c0-1.76-1.17-3.52-3.5-4.87-4.65-2.69-12.21-2.69-16.86,0-2.33,1.35-3.5,3.11-3.5,4.87V420c0,1.77,1.17,3.53,3.5,4.87,4.65,2.69,12.21,2.69,16.86,0,2.33-1.34,3.5-3.1,3.5-4.87Z" style="fill:#263238"></path><path d="M291.1,412.23c-2.33,1.35-3.5,3.11-3.5,4.87s1.17,3.52,3.5,4.87c4.65,2.69,12.21,2.69,16.86,0,2.33-1.35,3.5-3.11,3.5-4.87s-1.17-3.52-3.5-4.87C303.31,409.54,295.75,409.54,291.1,412.23Z" style="fill:#455a64"></path><path d="M309.32,417.1a3,3,0,0,1-.4,1.47,5.78,5.78,0,0,1-2.47,2.21,16.44,16.44,0,0,1-13.85,0,5.8,5.8,0,0,1-2.46-2.21,3,3,0,0,1-.4-1.47c0-1.33.95-2.67,2.86-3.68a16.44,16.44,0,0,1,13.85,0C308.37,414.43,309.32,415.77,309.32,417.1Z" style="fill:#263238"></path><path d="M308.76,418.84a6.1,6.1,0,0,1-2.31,1.94,16.44,16.44,0,0,1-13.85,0,6.14,6.14,0,0,1-2.3-1.94A9.23,9.23,0,0,1,307,413.72,9.07,9.07,0,0,1,308.76,418.84Z" style="fill:#37474f"></path><path d="M297.46,411.35a1.26,1.26,0,0,0,0,2.38,4.58,4.58,0,0,0,4.14,0,1.26,1.26,0,0,0,0-2.38A4.58,4.58,0,0,0,297.46,411.35Z" style="fill:#455a64"></path><path d="M301,409v5a4.71,4.71,0,0,1-3,0v-5a.75.75,0,0,1,.44-.61,2.35,2.35,0,0,1,2.1,0A.74.74,0,0,1,301,409Z" style="fill:#263238"></path><path d="M298.48,408.39a.65.65,0,0,0,0,1.22,2.35,2.35,0,0,0,2.1,0,.65.65,0,0,0,0-1.22A2.35,2.35,0,0,0,298.48,408.39Z" style="fill:#455a64"></path><ellipse cx="299.53" cy="406.77" rx="7.81" ry="5.12" style="fill:#18CB96"></ellipse><path d="M304.55,403.07c2.77,1.6,2.77,4.2,0,5.8a11.1,11.1,0,0,1-10,0c-2.77-1.6-2.77-4.2,0-5.8A11.1,11.1,0,0,1,304.55,403.07Z" style="fill:#fff;opacity:0.2"></path><path d="M384.56,374.89c0-1.76-1.17-3.53-3.5-4.87-4.65-2.69-12.21-2.69-16.86,0-2.33,1.34-3.5,3.11-3.5,4.87v2.9c0,1.76,1.17,3.53,3.5,4.87,4.66,2.69,12.21,2.69,16.87,0,2.32-1.34,3.49-3.11,3.49-4.87Z" style="fill:#263238"></path><path d="M364.2,370c-2.33,1.34-3.5,3.11-3.5,4.87s1.17,3.52,3.5,4.87c4.66,2.69,12.21,2.69,16.87,0,2.32-1.35,3.49-3.11,3.49-4.87s-1.17-3.53-3.5-4.87C376.41,367.33,368.86,367.33,364.2,370Z" style="fill:#455a64"></path><path d="M382.42,374.89a2.86,2.86,0,0,1-.4,1.47,5.72,5.72,0,0,1-2.47,2.21,16.41,16.41,0,0,1-13.84,0,5.78,5.78,0,0,1-2.47-2.21,3,3,0,0,1-.4-1.47c0-1.33,1-2.67,2.87-3.69a16.49,16.49,0,0,1,13.84,0C381.47,372.22,382.42,373.56,382.42,374.89Z" style="fill:#263238"></path><path d="M381.86,376.63a6.1,6.1,0,0,1-2.31,1.94,16.41,16.41,0,0,1-13.84,0,6.18,6.18,0,0,1-2.31-1.94,9.24,9.24,0,0,1,16.69-5.12A9.13,9.13,0,0,1,381.86,376.63Z" style="fill:#37474f"></path><path d="M370.56,369.13a1.27,1.27,0,0,0,0,2.39,4.58,4.58,0,0,0,4.14,0,1.27,1.27,0,0,0,0-2.39A4.64,4.64,0,0,0,370.56,369.13Z" style="fill:#455a64"></path><path d="M374.12,366.79v5a4.75,4.75,0,0,1-3,0v-5a.75.75,0,0,1,.44-.61,2.35,2.35,0,0,1,2.1,0A.75.75,0,0,1,374.12,366.79Z" style="fill:#263238"></path><path d="M371.58,366.18a.74.74,0,0,0-.43.61.71.71,0,0,0,.43.6,2.29,2.29,0,0,0,2.1,0,.73.73,0,0,0,.44-.6.75.75,0,0,0-.44-.61A2.35,2.35,0,0,0,371.58,366.18Z" style="fill:#455a64"></path><path d="M380.44,364.56c0,2.82-3.5,5.12-7.81,5.12s-7.81-2.3-7.81-5.12,3.49-5.12,7.81-5.12S380.44,361.73,380.44,364.56Z" style="fill:#18CB96"></path><path d="M377.65,360.86c2.77,1.6,2.77,4.2,0,5.8a11.1,11.1,0,0,1-10,0c-2.77-1.6-2.77-4.2,0-5.8A11.1,11.1,0,0,1,377.65,360.86Z" style="fill:#fff;opacity:0.2"></path><path d="M310.91,406a1.36,1.36,0,0,0,0,2.57,4.91,4.91,0,0,0,4.45,0,1.36,1.36,0,0,0,0-2.57A4.91,4.91,0,0,0,310.91,406Z" style="fill:#263238"></path><path d="M316,405.57a1.42,1.42,0,0,0-.85-1.17,4.47,4.47,0,0,0-4.06,0,1.42,1.42,0,0,0-.84,1.17v1.5a1.42,1.42,0,0,0,.84,1.17,4.47,4.47,0,0,0,4.06,0,1.42,1.42,0,0,0,.85-1.17Z" style="fill:#18CB96"></path><path d="M311.25,404.46a1.15,1.15,0,0,0,0,2.18,4.17,4.17,0,0,0,3.77,0,1.15,1.15,0,0,0,0-2.18A4.17,4.17,0,0,0,311.25,404.46Z" style="fill:#fff;opacity:0.2"></path><path d="M323.09,413a1.36,1.36,0,0,0,0,2.57,4.91,4.91,0,0,0,4.45,0,1.35,1.35,0,0,0,0-2.57A4.91,4.91,0,0,0,323.09,413Z" style="fill:#263238"></path><path d="M328.19,412.61a1.44,1.44,0,0,0-.84-1.18,4.53,4.53,0,0,0-4.06,0,1.44,1.44,0,0,0-.84,1.18v1.49a1.41,1.41,0,0,0,.84,1.17,4.47,4.47,0,0,0,4.06,0,1.41,1.41,0,0,0,.84-1.17Z" style="fill:#18CB96"></path><path d="M323.43,411.5a1.14,1.14,0,0,0,0,2.17,4.11,4.11,0,0,0,3.77,0,1.14,1.14,0,0,0,0-2.17A4.17,4.17,0,0,0,323.43,411.5Z" style="fill:#fff;opacity:0.2"></path><path d="M351.53,382.5a1.35,1.35,0,0,0,0,2.56,4.91,4.91,0,0,0,4.45,0,1.35,1.35,0,0,0,0-2.56A4.91,4.91,0,0,0,351.53,382.5Z" style="fill:#263238"></path><path d="M356.63,382.12a1.44,1.44,0,0,0-.85-1.17,4.47,4.47,0,0,0-4.06,0,1.42,1.42,0,0,0-.84,1.17v1.5a1.42,1.42,0,0,0,.84,1.17,4.47,4.47,0,0,0,4.06,0,1.42,1.42,0,0,0,.85-1.17Z" style="fill:#18CB96"></path><path d="M351.87,381a1.15,1.15,0,0,0,0,2.18,4.17,4.17,0,0,0,3.77,0,1.15,1.15,0,0,0,0-2.18A4.17,4.17,0,0,0,351.87,381Z" style="fill:#fff;opacity:0.2"></path><path d="M363.71,389.53a1.36,1.36,0,0,0,0,2.57,4.91,4.91,0,0,0,4.45,0,1.36,1.36,0,0,0,0-2.57A4.91,4.91,0,0,0,363.71,389.53Z" style="fill:#263238"></path><path d="M368.81,389.16A1.44,1.44,0,0,0,368,388a4.53,4.53,0,0,0-4.06,0,1.44,1.44,0,0,0-.84,1.18v1.49a1.41,1.41,0,0,0,.84,1.17,4.47,4.47,0,0,0,4.06,0,1.41,1.41,0,0,0,.84-1.17Z" style="fill:#18CB96"></path><path d="M364.05,388.05a1.14,1.14,0,0,0,0,2.17,4.17,4.17,0,0,0,3.77,0,1.14,1.14,0,0,0,0-2.17A4.11,4.11,0,0,0,364.05,388.05Z" style="fill:#fff;opacity:0.2"></path><path d="M324.92,401.38l-5.26,3a1.69,1.69,0,0,1-1.53-.07h0c-.46-.26-.51-.65-.11-.88l5.26-3a1.69,1.69,0,0,1,1.53.06h0C325.27,400.75,325.32,401.15,324.92,401.38Z" style="fill:#f0f0f0"></path><path d="M336.42,408l-5.26,3a1.69,1.69,0,0,1-1.53-.06h0c-.46-.26-.51-.66-.11-.88l5.26-3.05a1.73,1.73,0,0,1,1.53.07h0C336.77,407.38,336.82,407.77,336.42,408Z" style="fill:#f0f0f0"></path><path d="M349.46,387.21l-5.26,3a1.69,1.69,0,0,1-1.53-.06h0c-.46-.27-.51-.66-.11-.89l5.26-3a1.69,1.69,0,0,1,1.53.06h0C349.81,386.59,349.86,387,349.46,387.21Z" style="fill:#f0f0f0"></path><path d="M361,393.83l-5.26,3a1.69,1.69,0,0,1-1.53-.06h0c-.46-.26-.51-.66-.11-.88l5.26-3a1.69,1.69,0,0,1,1.53.06h0C361.31,393.21,361.36,393.61,361,393.83Z" style="fill:#f0f0f0"></path></g></g><g id="freepik--device-1--inject-38"><g id="freepik--Drone--inject-38"><path d="M274.61,215.37c8.26,0,10.88-53.63,10.88-53.63H263.73s2.62,53.63,10.88,53.63" style="fill:#37474f"></path><path d="M282.3,157.3a17,17,0,0,0-15.38,0c-4.25,2.45-4.25,6.43,0,8.88a17,17,0,0,0,15.38,0C286.55,163.73,286.55,159.75,282.3,157.3Z" style="fill:#455a64"></path><polygon points="397.16 269.53 263.3 249.18 278.92 177.52 278.92 171.06 266.96 170.39 212.85 246.1 65.83 244.44 62.32 250.81 62.32 257.27 196.01 283.43 180.56 349.28 180.56 355.74 192.52 356.41 246.63 286.65 393.65 282.36 397.16 276 397.16 269.53" style="fill:#37474f"></polygon><polygon points="65.83 244.44 212.85 246.1 266.96 170.39 278.92 171.06 260.68 248.78 397.16 269.53 393.65 275.9 246.63 274.24 192.52 349.95 180.56 349.28 198.79 271.56 62.31 250.81 65.83 244.44" style="fill:#455a64"></polygon><path d="M186.77,401.46c8.27,0,10.88-53.63,10.88-53.63H175.9s2.61,53.63,10.87,53.63" style="fill:#37474f"></path><path d="M194.47,343.39a17,17,0,0,0-15.39,0c-4.25,2.45-4.25,6.43,0,8.88a17,17,0,0,0,15.39,0C198.71,349.82,198.71,345.84,194.47,343.39Z" style="fill:#455a64"></path><path d="M229.21,320.76l-42.44,24.49-42.43-24.49C167.76,307.23,205.76,307.23,229.21,320.76Z" style="fill:#18CB96;opacity:0.30000000000000004"></path><path d="M229.21,369.75l-42.44-24.5,42.44-24.49C252.64,334.28,252.64,356.22,229.21,369.75Z" style="fill:#18CB96;opacity:0.1"></path><path d="M229.21,369.75c-23.45,13.53-61.45,13.53-84.87,0l42.43-24.5Z" style="fill:#18CB96;opacity:0.30000000000000004"></path><path d="M186.77,345.25l-42.43,24.5c-23.43-13.53-23.43-35.47,0-49Z" style="fill:#18CB96;opacity:0.1"></path><path d="M193,348.37v-2.66H191a9.85,9.85,0,0,0-8.39,0h-2.07v2.67h0a3.14,3.14,0,0,0,1.84,2.55,9.79,9.79,0,0,0,8.85,0A3.08,3.08,0,0,0,193,348.37Z" style="fill:#18CB96"></path><path d="M193,348.37v-2.66H191a9.85,9.85,0,0,0-8.39,0h-2.07v2.67h0a3.14,3.14,0,0,0,1.84,2.55,9.79,9.79,0,0,0,8.85,0A3.08,3.08,0,0,0,193,348.37Z" style="opacity:0.30000000000000004"></path><path d="M191.2,343.15a9.79,9.79,0,0,0-8.85,0c-2.45,1.42-2.45,3.7,0,5.12a9.79,9.79,0,0,0,8.85,0C193.65,346.85,193.65,344.57,191.2,343.15Z" style="fill:#18CB96"></path><path d="M189,344.44a4.85,4.85,0,0,0-4.39,0,1.34,1.34,0,0,0,0,2.54,4.85,4.85,0,0,0,4.39,0A1.34,1.34,0,0,0,189,344.44Z" style="fill:#455a64"></path><path d="M193,345h0s-1.49-8.62-6.27-8.62-6.26,8.62-6.26,8.62h0c-.13,1,.47,2.06,1.82,2.84a9.81,9.81,0,0,0,8.89,0C192.57,347,193.17,346,193,345Z" style="fill:#18CB96"></path><path d="M193,345h0s-1.49-8.62-6.27-8.62-6.26,8.62-6.26,8.62h0c-.13,1,.47,2.06,1.82,2.84a9.81,9.81,0,0,0,8.89,0C192.57,347,193.17,346,193,345Z" style="fill:#fff;opacity:0.5"></path><path d="M185.41,347.27c-2.84-1.71-3.41-6.3-.84-10.21-3,2.05-4.06,7.91-4.06,7.91h0c-.13,1,.47,2.06,1.82,2.84a9.81,9.81,0,0,0,8.89,0l.33-.21C190.09,348,187.4,348.46,185.41,347.27Z" style="fill:#18CB96;opacity:0.30000000000000004"></path><path d="M185.49,339.12a3,3,0,0,0,.79.84c1.73,1.37,3.35,2.55,4.41,4.57.23.43.65,1,1.2.63.75-.57-.73-3.52-1.06-4.25a5.83,5.83,0,0,0-3-3.31,2.32,2.32,0,0,0-1.81.08,1.22,1.22,0,0,0-.61.69A1,1,0,0,0,185.49,339.12Z" style="fill:#fff;opacity:0.30000000000000004"></path><path d="M396.21,325.56c8.26,0,10.88-53.63,10.88-53.63H385.33s2.62,53.63,10.88,53.63" style="fill:#37474f"></path><path d="M403.9,267.49a17,17,0,0,0-15.38,0c-4.25,2.45-4.25,6.43,0,8.88a17,17,0,0,0,15.38,0C408.15,273.92,408.15,269.94,403.9,267.49Z" style="fill:#455a64"></path><path d="M438.65,244.85l-42.44,24.5-42.44-24.5C377.2,231.33,415.19,231.33,438.65,244.85Z" style="fill:#18CB96;opacity:0.30000000000000004"></path><path d="M438.65,293.85l-42.44-24.5,42.44-24.5C462.07,258.38,462.07,280.32,438.65,293.85Z" style="fill:#18CB96;opacity:0.1"></path><path d="M438.65,293.85c-23.46,13.52-61.45,13.52-84.88,0l42.44-24.5Z" style="fill:#18CB96;opacity:0.30000000000000004"></path><path d="M396.21,269.35l-42.44,24.5c-23.42-13.53-23.42-35.47,0-49Z" style="fill:#18CB96;opacity:0.1"></path><path d="M402.47,272.47v-2.66h-2.06a9.88,9.88,0,0,0-8.4,0H390v2.67h0a3.11,3.11,0,0,0,1.83,2.55,9.81,9.81,0,0,0,8.86,0A3.13,3.13,0,0,0,402.47,272.47Z" style="fill:#18CB96"></path><path d="M402.47,272.47v-2.66h-2.06a9.88,9.88,0,0,0-8.4,0H390v2.67h0a3.11,3.11,0,0,0,1.83,2.55,9.81,9.81,0,0,0,8.86,0A3.13,3.13,0,0,0,402.47,272.47Z" style="opacity:0.30000000000000004"></path><path d="M400.64,267.25a9.81,9.81,0,0,0-8.86,0c-2.44,1.41-2.44,3.7,0,5.11a9.75,9.75,0,0,0,8.86,0C403.08,271,403.08,268.66,400.64,267.25Z" style="fill:#18CB96"></path><path d="M398.41,268.54a4.87,4.87,0,0,0-4.4,0,1.34,1.34,0,0,0,0,2.54,4.87,4.87,0,0,0,4.4,0A1.34,1.34,0,0,0,398.41,268.54Z" style="fill:#455a64"></path><path d="M402.45,269.29h0s-1.5-8.62-6.27-8.62-6.27,8.62-6.27,8.62h0c-.13,1,.47,2.06,1.82,2.84a9.79,9.79,0,0,0,8.88,0C402,271.35,402.58,270.31,402.45,269.29Z" style="fill:#18CB96"></path><path d="M402.45,269.29h0s-1.5-8.62-6.27-8.62-6.27,8.62-6.27,8.62h0c-.13,1,.47,2.06,1.82,2.84a9.79,9.79,0,0,0,8.88,0C402,271.35,402.58,270.31,402.45,269.29Z" style="fill:#fff;opacity:0.5"></path><path d="M394.83,271.59c-2.84-1.71-3.41-6.3-.84-10.22-3,2.05-4.07,7.92-4.07,7.92h0c-.13,1,.47,2.06,1.82,2.84a9.79,9.79,0,0,0,8.88,0l.33-.21C399.51,272.31,396.81,272.77,394.83,271.59Z" style="fill:#18CB96;opacity:0.30000000000000004"></path><path d="M394.9,263.44a3.15,3.15,0,0,0,.79.84c1.73,1.37,3.35,2.55,4.41,4.56.23.43.66,1,1.2.63.75-.56-.72-3.51-1.06-4.24a5.78,5.78,0,0,0-3-3.31,2.28,2.28,0,0,0-1.81.08,1.16,1.16,0,0,0-.61.68A1,1,0,0,0,394.9,263.44Z" style="fill:#fff;opacity:0.30000000000000004"></path><path d="M71.29,300.92c8.26,0,10.88-53.63,10.88-53.63H60.41S63,300.92,71.29,300.92" style="fill:#37474f"></path><path d="M79,242.85a17,17,0,0,0-15.39,0c-4.25,2.45-4.25,6.43,0,8.88a17,17,0,0,0,15.39,0C83.23,249.28,83.23,245.3,79,242.85Z" style="fill:#455a64"></path><path d="M113.73,220.22,71.29,244.71,28.86,220.22C52.28,206.69,90.28,206.69,113.73,220.22Z" style="fill:#18CB96;opacity:0.30000000000000004"></path><path d="M113.73,269.21l-42.44-24.5,42.44-24.49C137.16,233.74,137.16,255.68,113.73,269.21Z" style="fill:#18CB96;opacity:0.1"></path><path d="M113.73,269.21c-23.45,13.53-61.45,13.53-84.87,0l42.43-24.5Z" style="fill:#18CB96;opacity:0.30000000000000004"></path><path d="M71.29,244.71l-42.43,24.5c-23.43-13.53-23.43-35.47,0-49Z" style="fill:#18CB96;opacity:0.1"></path><path d="M77.55,247.83v-2.66H75.49a9.88,9.88,0,0,0-8.4,0H65v2.67h0a3.12,3.12,0,0,0,1.84,2.55,9.79,9.79,0,0,0,8.85,0A3.09,3.09,0,0,0,77.55,247.83Z" style="fill:#18CB96"></path><path d="M77.55,247.83v-2.66H75.49a9.88,9.88,0,0,0-8.4,0H65v2.67h0a3.12,3.12,0,0,0,1.84,2.55,9.79,9.79,0,0,0,8.85,0A3.09,3.09,0,0,0,77.55,247.83Z" style="opacity:0.30000000000000004"></path><path d="M75.72,242.61a9.79,9.79,0,0,0-8.85,0c-2.45,1.42-2.45,3.7,0,5.12a9.79,9.79,0,0,0,8.85,0C78.17,246.31,78.17,244,75.72,242.61Z" style="fill:#18CB96"></path><path d="M73.49,243.9a4.85,4.85,0,0,0-4.39,0,1.34,1.34,0,0,0,0,2.54,4.85,4.85,0,0,0,4.39,0A1.34,1.34,0,0,0,73.49,243.9Z" style="fill:#455a64"></path><path d="M77.56,244.63h0S76.07,236,71.29,236,65,244.63,65,244.63h0c-.13,1,.47,2.06,1.82,2.84a9.81,9.81,0,0,0,8.89,0C77.09,246.69,77.69,245.65,77.56,244.63Z" style="fill:#18CB96"></path><path d="M77.56,244.63h0S76.07,236,71.29,236,65,244.63,65,244.63h0c-.13,1,.47,2.06,1.82,2.84a9.81,9.81,0,0,0,8.89,0C77.09,246.69,77.69,245.65,77.56,244.63Z" style="fill:#fff;opacity:0.5"></path><path d="M69.93,246.93c-2.84-1.71-3.41-6.3-.84-10.22-3,2-4.06,7.92-4.06,7.92h0c-.13,1,.47,2.06,1.82,2.84a9.81,9.81,0,0,0,8.89,0l.33-.21C74.61,247.65,71.91,248.12,69.93,246.93Z" style="fill:#18CB96;opacity:0.30000000000000004"></path><path d="M70,238.78a3,3,0,0,0,.79.84c1.73,1.37,3.35,2.55,4.41,4.56.23.44.65,1,1.19.63.76-.56-.72-3.51-1.05-4.24a5.8,5.8,0,0,0-3-3.31,2.28,2.28,0,0,0-1.81.08,1.2,1.2,0,0,0-.61.68A1,1,0,0,0,70,238.78Z" style="fill:#fff;opacity:0.30000000000000004"></path><path d="M317.05,134.66l-42.44,24.5-42.44-24.5C255.6,121.14,293.6,121.14,317.05,134.66Z" style="fill:#18CB96;opacity:0.30000000000000004"></path><path d="M317.05,183.66l-42.44-24.5,42.44-24.5C340.47,148.19,340.47,170.13,317.05,183.66Z" style="fill:#18CB96;opacity:0.1"></path><path d="M317.05,183.66c-23.45,13.52-61.45,13.52-84.88,0l42.44-24.5Z" style="fill:#18CB96;opacity:0.30000000000000004"></path><path d="M274.61,159.16l-42.44,24.5c-23.42-13.53-23.42-35.47,0-49Z" style="fill:#18CB96;opacity:0.1"></path><path d="M280.87,162.28v-2.66h-2.06a9.88,9.88,0,0,0-8.4,0h-2.06v2.67h0a3.11,3.11,0,0,0,1.83,2.55,9.81,9.81,0,0,0,8.86,0A3.13,3.13,0,0,0,280.87,162.28Z" style="fill:#18CB96"></path><path d="M280.87,162.28v-2.66h-2.06a9.88,9.88,0,0,0-8.4,0h-2.06v2.67h0a3.11,3.11,0,0,0,1.83,2.55,9.81,9.81,0,0,0,8.86,0A3.13,3.13,0,0,0,280.87,162.28Z" style="opacity:0.30000000000000004"></path><path d="M279,157.06a9.81,9.81,0,0,0-8.86,0c-2.44,1.41-2.44,3.7,0,5.11a9.75,9.75,0,0,0,8.86,0C281.48,160.76,281.48,158.47,279,157.06Z" style="fill:#18CB96"></path><path d="M276.81,158.35a4.87,4.87,0,0,0-4.4,0,1.34,1.34,0,0,0,0,2.54,4.87,4.87,0,0,0,4.4,0A1.34,1.34,0,0,0,276.81,158.35Z" style="fill:#455a64"></path><path d="M280.87,158.93h0s-1.5-8.63-6.27-8.63-6.27,8.63-6.27,8.63h0a3,3,0,0,0,1.82,2.83,9.81,9.81,0,0,0,8.89,0A3,3,0,0,0,280.87,158.93Z" style="fill:#18CB96"></path><path d="M280.87,158.93h0s-1.5-8.63-6.27-8.63-6.27,8.63-6.27,8.63h0a3,3,0,0,0,1.82,2.83,9.81,9.81,0,0,0,8.89,0A3,3,0,0,0,280.87,158.93Z" style="fill:#fff;opacity:0.5"></path><path d="M273.25,161.22c-2.84-1.7-3.41-6.3-.84-10.21-3,2.05-4.07,7.92-4.07,7.92h0a3,3,0,0,0,1.82,2.83,9.79,9.79,0,0,0,8.88,0,2.66,2.66,0,0,0,.33-.21C277.93,161.94,275.23,162.41,273.25,161.22Z" style="fill:#18CB96;opacity:0.30000000000000004"></path><path d="M273.33,153.07a3.11,3.11,0,0,0,.78.84c1.73,1.38,3.35,2.55,4.42,4.57.22.43.65,1,1.19.63.75-.57-.72-3.52-1.05-4.24a5.83,5.83,0,0,0-3-3.31,2.28,2.28,0,0,0-1.81.08,1.14,1.14,0,0,0-.61.68A1,1,0,0,0,273.33,153.07Z" style="fill:#fff;opacity:0.30000000000000004"></path><path d="M321,265.21,295.59,238.4s-39-21.3-63.48-34.91S189.28,182.82,167,195.7c-8.19,4.73-11.72,9.15-11.74,13.56,0,6.21,2.48,24.61,3.37,34.63.67,7.54,7,16.36,21.88,25.3,23.57,14.14,60.45,36.65,60.45,36.65l25.88,9.44,39.37-22.73Z" style="fill:#263238"></path><path d="M281.63,287.94,321,265.21,295.59,238.4s-39-21.3-63.48-34.91S189.28,182.82,167,195.7s-10.06,23.45,13.51,37.6,60.45,36.64,60.45,36.64Z" style="fill:#37474f"></path><path d="M321,265.21l-31.79-26.6s-69-38.43-73.06-40.77S203.48,193,203.48,193c-12.74-2.61-23.16-1.79-30.81,2.63h0c-7.66,4.42-11.72,13-1.9,17.8,6.15,3,9.92,4.88,9.92,4.88l70.62,42.18,30.32,27.45Z" style="fill:#455a64"></path><path d="M203.48,193c-12.74-2.61-23.16-1.79-30.81,2.63h0c-7.66,4.42-11.72,13-1.9,17.8,6.15,3,9.92,4.88,9.92,4.88l35.46-20.47C212.09,195.49,203.48,193,203.48,193Z" style="opacity:0.1"></path><polygon points="289.21 238.61 251.31 260.49 281.63 287.94 321 265.21 289.21 238.61" style="opacity:0.1"></polygon><polygon points="281.63 287.94 266.82 315.28 306.19 292.55 321 265.21 281.63 287.94"></polygon><path d="M178.31,267.84c.71.45,1.43.9,2.18,1.35,18.08,10.84,44,26.6,55.07,33.36V283l-57.25-33.05Z" style="fill:#37474f"></path><path d="M195.92,278.48l2.83,1.71V266l-2.83-1.64Zm-6.41-3.86,2.83,1.7V262.26l-2.83-1.64Zm12.81,7.74,2.83,1.71V269.65L202.32,268Zm-19.21-11.6,2.83,1.7v-13.9l-2.83-1.63ZM221.53,294l2.83,1.72v-15l-2.83-1.63Zm6.41-11.21v15.1l2.83,1.72V284.44Zm-12.81,7.32,2.83,1.71V277.05l-2.83-1.64Zm-6.41-3.89,2.83,1.72V273.35l-2.83-1.63Z" style="fill:#263238"></path><path d="M183.75,206.51a2.8,2.8,0,0,1,1.5-.38,3,3,0,0,1,.77.13,4,4,0,0,1,.76.3c.29.16.57.32.83.49a2.21,2.21,0,0,1,.53.44.74.74,0,0,1,.22.44.59.59,0,0,1-.12.43,1.63,1.63,0,0,1-.51.42l-1.23.71a.29.29,0,0,1-.14,0,.42.42,0,0,1-.15,0l-3.65-2.11a.13.13,0,0,1-.07-.08.07.07,0,0,1,0-.08Zm2.36.43a2.62,2.62,0,0,0-.39-.15,1.55,1.55,0,0,0-.43-.07,1.26,1.26,0,0,0-.43,0,1.54,1.54,0,0,0-.43.17l-.65.38,2.54,1.47.68-.39a.92.92,0,0,0,.29-.24.39.39,0,0,0,.06-.25.45.45,0,0,0-.12-.24,1.11,1.11,0,0,0-.28-.23C186.69,207.26,186.41,207.1,186.11,206.94Z" style="fill:#fafafa"></path><path d="M187.25,204.48a2.44,2.44,0,0,1,1.26-.34,2.38,2.38,0,0,1,1.23.34,1.21,1.21,0,0,1,.54.5.49.49,0,0,1-.05.53l2.08.41.07,0s.06,0,.06.07a.08.08,0,0,1,0,.07l-.42.24a.45.45,0,0,1-.19,0l-.17,0-2-.39-.65.38,1.32.76a.09.09,0,0,1,.06.08.07.07,0,0,1,0,.08l-.4.23a.29.29,0,0,1-.14,0,.42.42,0,0,1-.15,0L186,205.38a.15.15,0,0,1-.07-.09.08.08,0,0,1,.05-.08Zm1.05,1.46.71-.41a.64.64,0,0,0,.33-.33c0-.1-.05-.22-.26-.34a1,1,0,0,0-.59-.15,1.36,1.36,0,0,0-.55.2l-.71.41Z" style="fill:#fafafa"></path><path d="M190.5,204.32a2.31,2.31,0,0,1-.49-.41.8.8,0,0,1-.22-.44.67.67,0,0,1,.11-.44,1.42,1.42,0,0,1,.51-.43,2.24,2.24,0,0,1,.74-.29,2.83,2.83,0,0,1,.77-.07,3.19,3.19,0,0,1,.75.13,3.39,3.39,0,0,1,.71.28l.25.13.27.16a2.26,2.26,0,0,1,.26.16,1.54,1.54,0,0,1,.23.14,2.31,2.31,0,0,1,.5.4.85.85,0,0,1,.21.44.62.62,0,0,1-.11.44,1.51,1.51,0,0,1-.51.43,2.38,2.38,0,0,1-.75.29,2.94,2.94,0,0,1-1.52-.06,3.53,3.53,0,0,1-.7-.28l-.24-.13-.27-.16-.27-.15Zm2.25-1.27a1.85,1.85,0,0,0-.86-.23,1.37,1.37,0,0,0-.78.19c-.22.13-.33.28-.32.44s.14.34.4.5l.47.28.49.27a1.81,1.81,0,0,0,.85.23,1.42,1.42,0,0,0,.77-.19c.23-.13.34-.28.33-.44s-.14-.33-.4-.5l-.46-.28Z" style="fill:#fafafa"></path><path d="M198.74,202.43a.39.39,0,0,1-.18,0h-.15l-3.72-.56,2.33,1.34a.15.15,0,0,1,.07.09.08.08,0,0,1-.05.08l-.4.23a.18.18,0,0,1-.13,0,.24.24,0,0,1-.15,0l-3.66-2.11a.13.13,0,0,1-.07-.08.1.1,0,0,1,.05-.08l.35-.2a.25.25,0,0,1,.17,0h.15l3.72.56-2.33-1.34a.18.18,0,0,1-.07-.09.1.1,0,0,1,.05-.08l.4-.23a.2.2,0,0,1,.14,0,.32.32,0,0,1,.14,0l3.66,2.12a.13.13,0,0,1,.07.08.1.1,0,0,1,0,.08Z" style="fill:#fafafa"></path><path d="M201.55,200a.21.21,0,0,1,.14,0,.24.24,0,0,1,.15,0l.4.23a.13.13,0,0,1,.07.08.07.07,0,0,1-.05.08l-2.15,1.25a.21.21,0,0,1-.14,0,.24.24,0,0,1-.15,0l-3.65-2.11s-.07,0-.07-.08a.08.08,0,0,1,.05-.08l2.11-1.22a.29.29,0,0,1,.14,0,.33.33,0,0,1,.14,0l.41.23a.12.12,0,0,1,.06.09.07.07,0,0,1,0,.08l-1.59.91.9.52,1.48-.85a.26.26,0,0,1,.14,0,.33.33,0,0,1,.14,0l.41.23a.12.12,0,0,1,.06.09.07.07,0,0,1,0,.08l-1.48.85.94.54Z" style="fill:#fafafa"></path><polygon points="203.77 201.11 187.74 210.36 187.01 209.94 203.04 200.69 203.77 201.11" style="fill:#18CB96"></polygon><path d="M305,287.92c-6,6.82-15.33,13.19-20.83,14.22s-5.11-3.66.89-10.48,15.33-13.19,20.84-14.23S311,281.1,305,287.92Z" style="fill:#455a64"></path><path d="M283.46,303c-5.86,1.09-5.43-3.92,1-11.18s16.34-14.06,22.2-15.16,5.43,3.92-1,11.18S289.32,301.86,283.46,303Zm21.73-24.71c-5.13,1-13.86,6.92-19.46,13.28s-6,10.76-.84,9.8,13.87-6.92,19.46-13.29S310.33,277.28,305.19,278.25Z" style="fill:#37474f"></path><path d="M300.8,288.71c-3.47,3.94-8.85,7.62-12,8.21s-2.95-2.11.52-6.05,8.85-7.62,12-8.22S304.26,284.77,300.8,288.71Z" style="fill:#37474f"></path><path d="M298,289.24c-1.77,2-4.54,3.9-6.17,4.21s-1.51-1.09.27-3.11,4.54-3.9,6.17-4.21S299.77,287.22,298,289.24Z" style="fill:#263238"></path><path d="M296.89,287.15a6.55,6.55,0,0,1-2.88,2c-.76.14-.7-.51.13-1.45a6.52,6.52,0,0,1,2.87-2C297.77,285.56,297.72,286.21,296.89,287.15Z" style="fill:#fafafa"></path></g></g></svg>
