<svg xmlns="http://www.w3.org/2000/svg" viewBox="0 0 500 500"><g id="freepik--background-complete--inject-36"><g><g><g><path d="M443.92039,345.0618h-180.7461c-3.2324,0-5.86229-2.6298-5.86229-5.8623V75.9261c0-3.2324,2.62989-5.8618,5.86229-5.8618h180.7461c3.2324,0,5.8623,2.6294,5.8623,5.8618V339.1995c0,3.2325-2.6299,5.8623-5.8623,5.8623ZM263.17429,70.3143c-3.0947,0-5.61229,2.5176-5.61229,5.6118V339.1995c0,3.0948,2.51759,5.6123,5.61229,5.6123h180.7461c3.0947,0,5.6123-2.5175,5.6123-5.6123V75.9261c0-3.0942-2.5176-5.6118-5.6123-5.6118h-180.7461Z" style="fill:#e0e0e0;"></path><path d="M235.49269,345.0618H54.7461c-3.2324,0-5.8618-2.6298-5.8618-5.8623V75.9261c0-3.2324,2.6294-5.8618,5.8618-5.8618H235.49269c3.2324,0,5.86231,2.6294,5.86231,5.8618V339.1995c0,3.2325-2.62991,5.8623-5.86231,5.8623ZM54.7461,70.3143c-3.0942,0-5.6118,2.5176-5.6118,5.6118V339.1995c0,3.0948,2.5176,5.6123,5.6118,5.6123H235.49269c3.0947,0,5.61231-2.5175,5.61231-5.6123V75.9261c0-3.0942-2.51761-5.6118-5.61231-5.6118H54.7461Z" style="fill:#e0e0e0;"></path></g><rect x="0" y="406.1312" width="500" height=".25" style="fill:#e0e0e0;"></rect></g><rect x="51.6724" y="420.3957" width="16.06" height=".25" style="fill:#e0e0e0;"></rect><rect x="170.3524" y="417.6857" width="53.53" height=".25" style="fill:#e0e0e0;"></rect><rect x="68.7324" y="429.6857" width="36.25" height=".25" style="fill:#e0e0e0;"></rect><rect x="378.35239" y="417.5557" width="43.19" height=".25" style="fill:#e0e0e0;"></rect><rect x="430.45239" y="417.5557" width="6.33" height=".25" style="fill:#e0e0e0;"></rect><rect x="316.21239" y="423.7857" width="53.89" height=".25" style="fill:#e0e0e0;"></rect></g><path d="M422.29979,113.3924c-3.18279-2.4047-7.8267-2.6772-11.2689-.6609-4.569-9.2329-17.3014-13.3077-26.382-8.4431-2.36889-9.949-12.1715-17.5963-22.398-17.4735-10.2267,.1231-19.8423,8.004-21.9711,18.0074-.3382,1.5896-.5622,3.3313-1.6994,4.4925-1.8471,1.8867-4.931,1.2535-7.56339,1.0482-8.28211-.6461-16.61551,5.1684-18.86781,13.1644l114.0537-.4152c.9989-3.8617-.7203-7.3152-3.9031-9.7198Z" style="fill:#e6e6e6;"></path><path d="M154.741,358.7539c-2.6569-2.0072-6.5333-2.2347-9.4066-.5516-3.8139-7.7071-14.4421-11.1084-22.022-7.0478-1.9774-8.3048-10.1599-14.6882-18.6963-14.5857-8.5366,.1027-16.5631,6.6812-18.3401,15.0314-.2823,1.3269-.4693,2.7807-1.4185,3.7501-1.5419,1.5748-4.1161,1.0463-6.3135,.8749-6.9133-.5393-13.8695,4.3143-15.7496,10.9888l95.2046-.3466c.8338-3.2235-.6013-6.1062-3.258-8.1135Z" style="fill:#e0e0e0;"></path><path d="M176.3941,94.7181c-3.2825-2.48-8.0717-2.7611-11.6218-.6817-4.7121-9.5221-17.8431-13.7244-27.2081-8.7075-2.4429-10.2606-12.5526-18.1473-23.0993-18.0206-10.5469,.1269-20.4635,8.2546-22.6592,18.5712-.3486,1.6396-.5798,3.4357-1.7524,4.6333-1.9051,1.9458-5.0854,1.2928-7.8004,1.0809-8.5412-.6663-17.1357,5.3304-19.4585,13.5767l117.6251-.4281c1.0301-3.9827-.7429-7.5443-4.0254-10.0242Z" style="fill:#f0f0f0;"></path><path d="M439.995,360.3703c-3.28261-2.48-8.07171-2.7611-11.62191-.6817-4.712-9.5221-17.84309-13.7245-27.20809-8.7075-2.44291-10.2606-12.55261-18.1473-23.09931-18.0206-10.5469,.1269-20.4635,8.2546-22.6591,18.5712-.3487,1.6395-.5798,3.4357-1.7524,4.6333-1.9051,1.9458-5.0855,1.2928-7.8005,1.0809-8.5412-.6663-17.1356,5.3304-19.4584,13.5767l117.6251-.4281c1.03-3.9827-.7429-7.5443-4.02539-10.0242Z" style="fill:#f0f0f0;"></path><path d="M294.79409,62.5667c-2.433-1.8382-5.9829-2.0466-8.6144-.5052-3.49269-7.0581-13.2258-10.173-20.1674-6.4543-1.8108-7.6054-9.30429-13.4512-17.1218-13.3574-7.8177,.0941-15.1682,6.1186-16.7956,13.7655-.2585,1.2153-.4298,2.5467-1.299,3.4344-1.4121,1.4422-3.7695,.9582-5.78189,.8012-6.331-.4939-12.70141,3.951-14.42311,10.0634l87.187-.3173c.7635-2.9521-.5507-5.5921-2.9838-7.4303Z" style="fill:#f5f5f5;"></path><path d="M256.43079,159.5928c-2.4331-1.8382-5.983-2.0466-8.6144-.5053-3.4927-7.0581-13.2259-10.173-20.16739-6.4543-1.81081-7.6054-9.30441-13.4512-17.12191-13.3574-7.8177,.0941-15.16809,6.1186-16.7956,13.7655-.2584,1.2153-.4298,2.5467-1.2989,3.4344-1.4121,1.4423-3.7695,.9582-5.7819,.8012-6.331-.4939-12.7015,3.951-14.4232,10.0634l87.187-.3173c.7636-2.9521-.5506-5.5921-2.9837-7.4302Z" style="fill:#f5f5f5;"></path><path d="M281.38479,399.4401c-2.4331-1.8382-5.983-2.0466-8.6144-.5053-3.4927-7.058-13.2259-10.1729-20.16739-6.4542-1.81081-7.6055-9.30441-13.4513-17.12191-13.3574-7.8177,.094-15.16809,6.1185-16.7956,13.7655-.2584,1.2153-.4298,2.5466-1.2989,3.4344-1.4121,1.4422-3.7695,.9582-5.7819,.8011-6.331-.4938-12.7015,3.9511-14.4232,10.0635l87.187-.3174c.7636-2.9521-.5506-5.592-2.9837-7.4302Z" style="fill:#f5f5f5;"></path></g><g id="freepik--Shadow--inject-36"><path d="M464.70569,454.2246c0,3.3867-93.5165,6.1322-208.87499,6.1322s-208.87499-2.7455-208.87499-6.1322,93.5165-6.1323,208.87499-6.1323,208.87499,2.7455,208.87499,6.1323Z" style="fill:#f5f5f5;"></path></g><g id="freepik--Device--inject-36"><g><g><polygon points="395.01659 189.4312 372.13489 188.7458 349.79649 175.8099 355.84939 173.5929 381.868 178.1162 400.87329 187.7508 395.01659 189.4312" style="fill:#263238;"></polygon><g><path d="M410.83709,284.8801c-1.128-.282-88.2624-27.6349-88.2624-27.6349l-12.9714-1.4099-8.7416-5.9218v21.4312l6.7677,.5639,9.30561,6.4858,70.44949,16.8569,7.9738,8.5145c7.372,1.2007,12.8056,.2903,15.4788-3.6267v-15.259Z" style="fill:#407BFF;"></path><path d="M410.83709,284.8801s-4.7492,6.4349-18.1104,2.0847l-4.1948-2.0847-72.2206-16.0181-8.1691-6.606-7.2805-.8129v9.9016l6.7677,.5639,9.30561,6.4858,70.44949,16.8569,7.9738,8.5145s1.9485,.3953,4.5231,.4933c2.6645,.1013,6.0038-.1246,8.80861-1.9689,.60559-.3982,1.11919-.8763,1.613-1.4509,.183-.2129,.40259-.4827,.53409-.7002v-15.259Z" style="opacity:.3;"></path><path d="M402.84819,271.9547c-.1098-1.8569,9.4511-18.2755,9.4511-18.2755l30.06471-16.5188,6.34009,2.38-21.9318,26.8374-19.8651,8.8191-4.059-3.2422Z" style="fill:#263238;"></path><rect x="396.86919" y="266.7693" width="10.5819" height="18.5546" transform="translate(804.32028 552.0932) rotate(180)" style="fill:#263238;"></rect><rect x="396.86919" y="266.7693" width="10.5819" height="18.5546" transform="translate(804.32028 552.0932) rotate(180)" style="fill:#fff; opacity:.3;"></rect><path d="M396.86919,266.7693c0,.5593,2.36881,1.0127,5.2909,1.0127s5.291-.4534,5.291-1.0127-2.3688-1.0127-5.291-1.0127-5.2909,.4534-5.2909,1.0127Z" style="fill:#263238;"></path><path d="M396.86919,266.7693c0,.5593,2.36881,1.0127,5.2909,1.0127s5.291-.4534,5.291-1.0127-2.3688-1.0127-5.291-1.0127-5.2909,.4534-5.2909,1.0127Z" style="fill:#fff; opacity:.3;"></path><polygon points="401.65779 274.7432 396.86919 288.2618 341.83509 304.6113 336.978 299.8799 370.56549 275.1969 396.86919 271.9123 401.65779 274.7432" style="fill:#263238;"></polygon></g><path d="M410.83709,221.4667c-1.128,.282-88.2624,27.6348-88.2624,27.6348l-12.9714,1.41-8.7416,5.9217v-21.4311l6.7677-.5639,9.30561-6.4858,70.44949-16.857,7.9738-8.5144c7.372-1.2008,12.8056-.2903,15.4788,3.6267v15.259Z" style="fill:#407BFF;"></path><rect x="394.7668" y="188.74503" width="10.58193" height="18.55464" transform="translate(2.58571 -5.14023) rotate(.73855)" style="fill:#263238;"></rect><rect x="394.7668" y="188.74503" width="10.58193" height="18.55464" transform="translate(2.58571 -5.14023) rotate(.73855)" style="fill:#fff; opacity:.3;"></rect><path d="M405.46789,188.814c-.0072,.5593-2.3817,.9821-5.3036,.9444-2.9218-.0377-5.2847-.5216-5.2774-1.0808,.0072-.5592,2.3817-.982,5.3035-.9444,2.9219,.0377,5.2847,.5216,5.2775,1.0808Z" style="fill:#263238;"></path><path d="M405.46789,188.814c-.0072,.5593-2.3817,.9821-5.3036,.9444-2.9218-.0377-5.2847-.5216-5.2774-1.0808,.0072-.5592,2.3817-.982,5.3035-.9444,2.9219,.0377,5.2847,.5216,5.2775,1.0808Z" style="fill:#fff; opacity:.3;"></path><polygon points="401.23079 189.7516 413.99069 198.0224 456.97889 198.2344 458.81239 196.2222 423.461 187.057 405.31959 189.0909 401.23079 189.7516" style="fill:#263238;"></polygon><ellipse cx="400.05777" cy="188.7458" rx="63.82728" ry="21.0895" style="fill:#263238; opacity:.3;"></ellipse><path d="M331.03049,287.9918c4.5252,22.1381,38.292,33.9321,75.4203,26.3428,37.1283-7.5894,63.5633-31.6892,59.0331-53.8263-4.5298-22.1346-38.2957-33.9294-75.4204-26.3427-37.1286,7.5874-63.5582,31.6882-59.033,53.8262Z" style="fill:#263238; opacity:.3;"></path><path d="M410.83709,206.7108c-.197,.2489-.8192,7.3429-15.6295,8.2141l-69.8198,22.2355-14.5613,4.6133-5.9739,5.7586,.8212,5.6411,3.9295-2.6619,12.9714-1.41,88.2624-27.6348v-14.7559Z" style="fill:#263238; opacity:.3;"></path><path d="M300.86169,271.9123v-36.9102l3.0085-.2507s.3766,36.8753,.00381,36.8443c-.37281-.0311-3.01231,.3166-3.01231,.3166Z" style="opacity:.3;"></path></g><g><polygon points="104.9834 192.5232 127.8651 191.8378 150.2035 178.9019 144.1506 176.6848 118.132 181.2082 99.1267 190.8428 104.9834 192.5232" style="fill:#263238;"></polygon><g><path d="M89.1629,287.9721c1.128-.282,88.2624-27.6349,88.2624-27.6349l12.9714-1.4099,8.7416-5.9218v21.4311l-6.7677,.564-9.3056,6.4857-70.4495,16.857-7.9738,8.5145c-7.372,1.2007-12.8056,.2903-15.4788-3.6267v-15.259Z" style="fill:#407BFF;"></path><path d="M89.1629,287.9721s4.7492,6.4348,18.1104,2.0847l4.1948-2.0847,72.2206-16.0181,8.1691-6.6061,7.2805-.8128v9.9015l-6.7677,.564-9.3056,6.4857-70.4495,16.857-7.9738,8.5145s-1.9485,.3953-4.5231,.4933c-2.6645,.1013-6.0038-.1247-8.8086-1.9689-.6056-.3982-1.1192-.8763-1.613-1.4509-.183-.2129-.4026-.4828-.5341-.7002v-15.259Z" style="opacity:.3;"></path><path d="M97.1518,275.0467c.1098-1.8569-9.4511-18.2755-9.4511-18.2755l-30.0647-16.5189-6.3401,2.3801,21.9318,26.8374,19.8651,8.8191,4.059-3.2422Z" style="fill:#263238;"></path><rect x="92.5489" y="269.8613" width="10.5819" height="18.5546" style="fill:#263238;"></rect><rect x="92.5489" y="269.8613" width="10.5819" height="18.5546" style="fill:#fff; opacity:.3;"></rect><path d="M103.1308,269.8613c0,.5593-2.3688,1.0127-5.2909,1.0127s-5.291-.4534-5.291-1.0127,2.3688-1.0127,5.291-1.0127,5.2909,.4534,5.2909,1.0127Z" style="fill:#263238;"></path><path d="M103.1308,269.8613c0,.5593-2.3688,1.0127-5.2909,1.0127s-5.291-.4534-5.291-1.0127,2.3688-1.0127,5.291-1.0127,5.2909,.4534,5.2909,1.0127Z" style="fill:#fff; opacity:.3;"></path><polygon points="98.3422 277.8351 103.1308 291.3538 158.1649 307.7033 163.022 302.9719 129.4345 278.2889 103.1308 275.0042 98.3422 277.8351" style="fill:#263238;"></polygon></g><path d="M89.1629,224.5587c1.128,.282,88.2624,27.6348,88.2624,27.6348l12.9714,1.41,8.7416,5.9217v-21.4311l-6.7677-.564-9.3056-6.4857-70.4495-16.857-7.9738-8.5145c-7.372-1.2007-12.8056-.2902-15.4788,3.6268v15.259Z" style="fill:#407BFF;"></path><rect x="94.65126" y="191.83703" width="10.58193" height="18.55464" transform="translate(202.46848 400.92375) rotate(179.26145)" style="fill:#263238;"></rect><rect x="94.65126" y="191.83703" width="10.58193" height="18.55464" transform="translate(202.46848 400.92375) rotate(179.26145)" style="fill:#fff; opacity:.3;"></rect><path d="M94.5321,191.906c.0072,.5593,2.3817,.9821,5.3036,.9444,2.9218-.0377,5.2847-.5216,5.2774-1.0808-.0072-.5592-2.3817-.9821-5.3035-.9444-2.9219,.0377-5.2847,.5216-5.2775,1.0808Z" style="fill:#263238;"></path><path d="M94.5321,191.906c.0072,.5593,2.3817,.9821,5.3036,.9444,2.9218-.0377,5.2847-.5216,5.2774-1.0808-.0072-.5592-2.3817-.9821-5.3035-.9444-2.9219,.0377-5.2847,.5216-5.2775,1.0808Z" style="fill:#fff; opacity:.3;"></path><polygon points="98.7692 192.8436 86.0093 201.1143 43.0211 201.3264 41.1876 199.3142 76.539 190.149 94.6804 192.1829 98.7692 192.8436" style="fill:#263238;"></polygon><ellipse cx="99.94222" cy="191.8378" rx="63.82727" ry="21.0895" style="fill:#263238; opacity:.3;"></ellipse><path d="M168.9695,291.0838c-4.5252,22.1381-38.292,33.9321-75.4203,26.3428-37.1283-7.5894-63.5633-31.6892-59.0331-53.8263,4.5298-22.1346,38.2957-33.9294,75.4204-26.3428,37.1286,7.5875,63.5582,31.6882,59.033,53.8263Z" style="fill:#263238; opacity:.3;"></path><path d="M89.1629,209.8028c.197,.2489,.8192,7.3429,15.6295,8.2141l69.8198,22.2354,14.5613,4.6134,5.9739,5.7586-.8212,5.6411-3.9295-2.6619-12.9714-1.41-88.2624-27.6348v-14.7559Z" style="fill:#263238; opacity:.3;"></path><path d="M199.13829,275.0042v-36.9101l-3.0085-.2507s-.3766,36.8753-.0038,36.8443c.3728-.0311,3.01229,.3165,3.01229,.3165Z" style="opacity:.3;"></path></g><g><path d="M230.39589,282.9756h44.5896v24.1194c0,4.29914-3.49036,7.7895-7.7895,7.7895h-29.0106c-4.29914,0-7.7895-3.49036-7.7895-7.7895v-24.1194h0Z" style="fill:#407BFF;"></path><rect x="230.39589" y="282.9756" width="44.5896" height="14.69" style="opacity:.5;"></rect></g><path d="M300.98679,222.9248c0-.5317-3.7214-4.7848-5.1392-6.557-1.4177-1.7721-14.886-5.3164-14.886-5.3164l-3.3671-11.519-5.6708-5.848s-11.7275-1.0655-21.3456-1.0797c-.0833-.0002-.166-.0006-.2497-.0007-.0836,.0001-.16639,.0005-.2496,.0007-9.6181,.0142-21.3457,1.0797-21.3457,1.0797l-5.6708,5.848-3.3671,11.519s-13.4683,3.5443-14.886,5.3164c-1.4177,1.7722-5.13919,6.0253-5.13919,6.557,0,.5316-1.41781,53.1643,0,58.4808,1.41769,5.3164,8.365,10.2784,12.405,10.2784l36.27909,.004v.0005l1.9743-.0003,1.9743,.0003v-.0005l36.2791-.004c3.6144,.0045,10.9874-4.962,12.405-10.2784,1.4178-5.3165,0-57.9492,0-58.4808Z" style="fill:#407BFF;"></path><g style="opacity:.3;"><path d="M300.98679,268.9459c-1.4176,5.3165-8.7906,10.2829-12.405,10.2785l-36.2791,.004v.0004l-1.9743-.0002-1.9743,.0002v-.0004l-36.27909-.004c-4.04,0-10.98731-4.962-12.405-10.2785-.36231-1.3583-.53911-5.8089-.60211-11.6865-.0876,11.4968,.0094,21.9884,.60211,24.2108,1.41769,5.3165,8.365,10.2785,12.405,10.2785l36.27909,.004v.0004l1.9743-.0002,1.9743,.0002v-.0004l36.2791-.004c3.6144,.0044,10.9874-4.962,12.405-10.2785,.5927-2.2223,.6897-12.7137,.602-24.2103-.0629,5.8773-.23979,10.3278-.602,11.686Z"></path></g><rect x="232.73439" y="300.2739" width="40.5049" height="13.4117" rx="6.3589" ry="6.3589" style="fill:#263238;"></rect><path d="M266.64089,306.9798c0,2.9851-2.42,5.405-5.4051,5.405s-5.405-2.4199-5.405-5.405,2.4199-5.4051,5.405-5.4051,5.4051,2.42,5.4051,5.4051Z" style="fill:#fff; opacity:.3;"></path><circle cx="261.2358" cy="306.9798" r="3.5878" style="fill:#fff; opacity:.3;"></circle><path d="M263.21549,307.0514c0,1.0908-.8843,1.9751-1.9752,1.9751-1.0908,0-1.9751-.8843-1.9751-1.9751,0-1.0909,.8843-1.9752,1.9751-1.9752,1.0909,0,1.9752,.8843,1.9752,1.9752Z" style="fill:#263238;"></path><path d="M254.29279,303.3216c0,.6357-.5153,1.151-1.151,1.151-.6356,0-1.1509-.5153-1.1509-1.151,0-.6356,.5153-1.1509,1.1509-1.1509,.6357,0,1.151,.5153,1.151,1.1509Z" style="fill:#407BFF;"></path><g><path d="M300.99039,222.9227c0-.5316-3.7215-4.7848-5.1391-6.5569-1.4178-1.7722-14.8861-5.3165-14.8861-5.3165l-3.3671-11.5189-5.6708-5.8481-5.2807-.4139-.0021-.0001c9.2226,27.89,11.0597,56.5781,6.5169,85.9557l15.424-.0017c3.6144,.0044,10.9873-4.962,12.405-10.2785,.3622-1.3582,.5391-5.8087,.602-11.686,.0149,1.9503,.0243-1.1372,.0271-.5022-.01749-17.0107-.6291-33.4836-.6291-33.8329Z" style="opacity:.2;"></path><path d="M301.61949,256.7556c.0002,.1675,.0007,.3346,.0007,.5022,0-.2553-.0003-.414-.0007-.5022Z" style="opacity:.2;"></path></g><polygon points="280.96519 211.0493 282.916 260.5469 277.59809 199.5304 280.96519 211.0493" style="opacity:.2;"></polygon><polygon points="219.69519 211.0514 222.01879 256.7556 223.06229 199.5324 219.69519 211.0514" style="opacity:.2;"></polygon><g style="opacity:.3;"><path d="M246.52509,196.7829c-1.4592-.1054-14.4002-.6319-16.8405,1.2029-1.1192,.8415-2.5483,2.3486-2.6685,3.7437-.51009,5.9174-.5047,11.504-.6149,17.4424-.2601,14.0096,1.0562,35.0208,4.0934,35.0208,6.1626-18.9221,10.3933-37.8441,16.5559-56.7662l-.5254-.6436Z" style="fill:#fff;"></path></g><g style="opacity:.3;"><path d="M215.10819,216.5359c.8373-.2355,1.6966,.2906,1.864,1.144,.30881,1.5746,.7517,3.8872,.875,4.8122,.1949,1.4623-.1038,2.9418-.43619,4.3791-1.872,8.0955-4.86941,15.9299-8.88081,23.2066-.3837,.6961-1.13919,1.1509-1.9296,1.0666-1.1679-.1246-2.7888-1.1754-2.9583-2.1687l-.9015-9.7965c-.2801-2.6964-.3022-5.1831-.368-7.7587-.0895-3.5003-.7407-6.1887,.15221-7.5223,1.66089-2.4807,3.34909-4.7023,4.22629-5.0119l8.3569-2.3504Z" style="fill:#fff;"></path></g></g></g></svg>
